<?xml version="1.0" encoding="utf-8"?>
<!-- Generator: Adobe Illustrator 17.1.0, SVG Export Plug-In . SVG Version: 6.00 Build 0)  -->
<!DOCTYPE svg PUBLIC "-//W3C//DTD SVG 1.1//EN" "http://www.w3.org/Graphics/SVG/1.1/DTD/svg11.dtd">
<svg version="1.1" id="Layer_1" xmlns="http://www.w3.org/2000/svg" xmlns:xlink="http://www.w3.org/1999/xlink" x="0px" y="0px"
	 viewBox="0 0 85 85" enable-background="new 0 0 85 85" xml:space="preserve">
<path d="M42.5,0C19.1,0,0,19.1,0,42.5C0,65.9,19.1,85,42.5,85C65.9,85,85,65.9,85,42.5C85,19.1,65.9,0,42.5,0z M42.5,4.4
	c21,0,38.1,17.1,38.1,38.1c0,5.5-1.2,10.7-3.3,15.5c-1.4-2.2-2.8-10.6-3.6-15.6c-2.1-12.6-3.5-19.8-8.1-19.8h0
	c-4.8,0-6.1,8.2-7.9,19.5c-0.8,5.2-2.2,13.7-3.7,15.7c-1.5-2.1-2.9-10.6-3.7-15.8c-2-12.4-3.3-19.4-7.9-19.4c-4.5,0-5.9,7-7.9,19.4
	c-0.9,5.2-2.3,13.6-3.7,15.8c-1.4-2.2-2.7-10.3-3.5-15.4c-2.1-12.6-3.5-19.8-8.1-19.8h0c-4.8,0-6.1,8.2-7.9,19.5
	c-0.8,5.2-2.2,13.7-3.6,15.7c0,0,0,0,0,0c-2.1-4.7-3.2-9.8-3.2-15.3C4.4,21.5,21.5,4.4,42.5,4.4z M42.5,80.6
	c-13.9,0-26.2-7.5-32.8-18.8c3.2-2.1,4.4-9.5,5.9-19.1c0.8-5.1,2.1-13.3,3.5-15.4c1.5,2.2,2.8,10.6,3.7,15.8
	c2,12.4,3.4,19.4,7.9,19.4c4.7,0,6.1-7.2,8.2-19.8c0.8-5,2.2-13.1,3.6-15.3c1.4,2.2,2.7,10.3,3.5,15.3c2,12.7,3.4,19.8,8.1,19.8
	c4.9,0,6.2-8.3,8-19.7c0.8-5.1,2.1-13.3,3.5-15.4c1.5,2.2,2.8,10.6,3.7,15.8c1.7,10.4,3,17,6,18.8C68.6,73.1,56.4,80.6,42.5,80.6z"
	/>
</svg>
