<?xml version="1.0" encoding="utf-8"?>
<!-- Generator: Adobe Illustrator 16.0.0, SVG Export Plug-In . SVG Version: 6.00 Build 0)  -->
<!DOCTYPE svg PUBLIC "-//W3C//DTD SVG 1.1//EN" "http://www.w3.org/Graphics/SVG/1.1/DTD/svg11.dtd">
<svg version="1.1" id="Layer_1" xmlns="http://www.w3.org/2000/svg" xmlns:xlink="http://www.w3.org/1999/xlink" x="0px" y="0px"
	 width="612px" height="792px" viewBox="0 0 612 792" enable-background="new 0 0 612 792" xml:space="preserve">
<path fill="#FFFFFF" d="M306,90C137.52,90,0,227.52,0,396c0,168.48,137.52,306,306,306c168.48,0,306-137.52,306-306
	C612,227.52,474.48,90,306,90z M306,121.68c151.2,0,274.32,123.12,274.32,274.32c0,39.6-8.641,77.04-23.761,111.6
	c-10.08-15.84-20.159-76.319-25.92-112.32c-15.12-90.72-25.2-142.56-58.319-142.56l0,0c-34.561,0-43.92,59.04-56.88,140.4
	C409.68,430.56,399.6,491.76,388.8,506.16c-10.8-15.12-20.88-76.32-26.64-113.76c-14.4-89.28-23.76-139.68-56.88-139.68
	c-32.4,0-42.48,50.4-56.88,139.68c-6.48,37.44-16.56,97.92-26.64,113.76c-10.08-15.84-19.44-74.16-25.2-110.88
	c-15.12-90.72-25.2-142.56-58.32-142.56l0,0c-34.56,0-43.92,59.04-56.88,140.4c-5.76,37.439-15.84,98.64-25.92,113.04l0,0
	C40.32,472.32,32.4,435.6,32.4,396C31.68,244.8,154.8,121.68,306,121.68z M306,670.32c-100.08,0-188.64-54-236.16-135.36
	c23.04-15.12,31.68-68.4,42.48-137.521c5.76-36.72,15.12-95.759,25.2-110.879c10.8,15.84,20.16,76.32,26.64,113.76
	C178.56,489.6,188.64,540,221.04,540c33.84,0,43.92-51.84,59.04-142.561c5.76-36,15.84-94.319,25.92-110.159
	c10.08,15.84,19.44,74.16,25.2,110.159C345.6,488.88,355.68,540,389.52,540c35.28,0,44.641-59.76,57.601-141.84
	c5.76-36.72,15.12-95.76,25.2-110.88c10.8,15.84,20.16,76.32,26.64,113.76c12.24,74.88,21.6,122.4,43.2,135.36
	C493.92,616.32,406.08,670.32,306,670.32z"/>
</svg>
